<svg width="2641" height="1174" xmlns="http://www.w3.org/2000/svg" xmlns:xlink="http://www.w3.org/1999/xlink" xml:space="preserve" overflow="hidden"><defs><clipPath id="clip0"><rect x="698" y="734" width="2641" height="1174"/></clipPath></defs><g clip-path="url(#clip0)" transform="translate(-698 -734)"><rect x="698" y="734" width="2641" height="1174" fill="#EDEFF3"/><path d="M2401.29 1564.31C2579.84 1556.07 2842.38 1526.08 2867.4 1383.79 2886.33 1275.79 2732.91 1215.28 2647.56 1137.87 2544.16 1044.08 2509.98 902.926 2371.84 844.534 2105.66 732.037 2019.22 1055.88 1920.72 1121.05 1879.86 1148.05 1835.59 1144.37 1649.72 1110.06 1297.64 1045.06 1157.11 1071.64 1089.63 1215 1016.54 1370.44 1145.99 1486.27 1346.63 1688.05 1412.76 1754.58 1513.31 1821.57 1685.85 1819.97 1828.05 1818.66 1889.98 1737.41 1978.42 1668.42 2107.34 1567.85 2198.16 1573.69 2401.29 1564.31Z" fill="#FFFFFF" fill-rule="evenodd" fill-opacity="0.4"/><path d="M1837.52 1025.29C1810.95 982.528 1671.4 996.602 1670.01 1034.14 1668.68 1071.69 1864.07 1068.02 1837.52 1025.29Z" fill="#FFFFFF" fill-rule="evenodd" fill-opacity="0.4"/><path d="M2398.53 1642.85C2372.12 1600.8 2233.37 1614.64 2232.01 1651.56 2230.67 1688.49 2424.93 1684.89 2398.53 1642.85Z" fill="#FFFFFF" fill-rule="evenodd" fill-opacity="0.4"/><path d="M1893.33 910.664C1875.52 881.926 1781.89 891.395 1781 916.616 1780.1 941.849 1911.16 939.396 1893.33 910.664Z" fill="#FFFFFF" fill-rule="evenodd" fill-opacity="0.4"/><rect x="1808" y="1010" width="350" height="229" fill="#E0E6F1"/><rect x="1444" y="1250" width="350" height="229" fill="#EBF0F6"/><rect x="1444" y="1480" width="350" height="228" fill="#EBF0F6"/><rect x="1100" y="1480" width="350" height="228" fill="#E0E6F1"/><rect x="1090" y="1252" width="350" height="228" fill="#E0E6F1"/><rect x="1457" y="1003" width="351" height="229" fill="#EBF0F6"/><rect x="1100" y="1016" width="335" height="218" fill="#FFFFFF" fill-opacity="0"/><path d="M1232 1125 1303.44 1125" stroke="#6C89B3" stroke-width="32.0833" stroke-linecap="round" stroke-linejoin="round" stroke-miterlimit="10" fill="none" fill-rule="evenodd"/><rect x="1812" y="1258" width="336" height="218" fill="#FFFFFF" fill-opacity="0"/><path d="M1945 1367 2016.44 1367" stroke="#6C89B3" stroke-width="32.0833" stroke-linecap="round" stroke-linejoin="round" stroke-miterlimit="10" fill="none" fill-rule="evenodd"/><rect x="1812" y="1487" width="336" height="218" fill="#FFFFFF" fill-opacity="0"/><path d="M1945 1596 2016.44 1596" stroke="#6C89B3" stroke-width="32.0833" stroke-linecap="round" stroke-linejoin="round" stroke-miterlimit="10" fill="none" fill-rule="evenodd"/><path d="M1071 1727 2176 1727 2176 986 1071 986ZM1100.08 1697.94 1100.08 1494.53 1434.49 1494.53 1434.49 1697.94ZM1783.43 1262.06 1783.43 1465.47 1463.57 1465.47 1463.57 1262.06ZM1463.57 1233 1463.57 1015.06 1783.43 1015.06 1783.43 1233ZM1812.51 1262.06 2146.92 1262.06 2146.92 1465.47 1812.51 1465.47ZM1434.49 1465.47 1100.08 1465.47 1100.08 1262.06 1434.49 1262.06ZM1463.57 1697.94 1463.57 1494.53 1783.43 1494.53 1783.43 1697.94ZM1812.51 1697.94 1812.51 1494.53 2146.92 1494.53 2146.92 1697.94ZM2146.92 1233 1812.51 1233 1812.51 1015.06 2146.92 1015.06ZM1434.49 1015.06 1434.49 1233 1100.08 1233 1100.08 1015.06Z" fill="#C8CCDA" fill-rule="evenodd"/><path d="M3031.25 1526.42 2928.48 1423.73C2914.5 1409.76 2895.59 1404.83 2877.5 1408.12L2841.33 1371.97C2873.39 1330.9 2892.3 1278.32 2892.3 1222.46 2892.3 1086.91 2781.31 976 2645.65 976 2509.99 976 2399 1086.91 2399 1222.46 2399 1358.01 2509.99 1468.91 2645.65 1468.91 2701.56 1468.91 2753.35 1450.02 2795.28 1417.98L2831.46 1454.12C2828.17 1472.2 2833.1 1491.09 2847.08 1505.06L2949.85 1607.75C2961.36 1619.25 2976.16 1625 2990.96 1625 3005.76 1625 3020.56 1619.25 3032.07 1607.75 3053.45 1584.75 3053.45 1548.6 3031.25 1526.42ZM2644.83 1418.8C2536.3 1418.8 2447.51 1330.07 2447.51 1221.63 2447.51 1113.19 2536.3 1024.47 2644.83 1024.47 2753.35 1024.47 2842.15 1113.19 2842.15 1221.63 2842.15 1330.07 2753.35 1418.8 2644.83 1418.8Z" fill="#C8CCDA" fill-rule="evenodd"/><g><g><g><path d="M217.436 45.3125C122.393 45.3125 45.3442 122.361 45.3442 217.405 45.3442 312.449 122.393 389.497 217.436 389.497 312.48 389.497 389.529 312.449 389.529 217.405 389.529 217.399 389.529 217.393 389.529 217.387 389.561 122.385 312.574 45.3451 217.572 45.3125 217.527 45.3124 217.482 45.3124 217.436 45.3125ZM301.804 232.725 232.757 232.725 232.757 301.754 202.116 301.754 202.116 232.707 133.069 232.707 133.069 202.066 202.116 202.066 202.116 133.019 232.757 133.019 232.757 202.066 301.804 202.066Z" fill="#E5EBF3" transform="matrix(1 0 0 1 2427 1006)"/></g></g></g><path d="M2026.54 927.685C2181.35 845.465 2373.5 904.312 2455.72 1059.12" stroke="#C8CCDA" stroke-width="32.0833" stroke-linecap="round" stroke-linejoin="round" stroke-miterlimit="10" stroke-dasharray="0 64.1667" fill="none" fill-rule="evenodd"/></g></svg>